<?xml version="1.0" encoding="utf-8"?>
<!-- Generator: Adobe Illustrator 16.0.3, SVG Export Plug-In . SVG Version: 6.00 Build 0)  -->
<!DOCTYPE svg PUBLIC "-//W3C//DTD SVG 1.1//EN" "http://www.w3.org/Graphics/SVG/1.1/DTD/svg11.dtd">
<svg version="1.1" id="Layer_1" xmlns="http://www.w3.org/2000/svg" xmlns:xlink="http://www.w3.org/1999/xlink" x="0px" y="0px"
	 width="1224px" height="601.898px" viewBox="0 0 1224 601.898" enable-background="new 0 0 1224 601.898" xml:space="preserve">
<g opacity="0.8">
	<g id="Group_91" transform="translate(0 -73.6)">
		<path id="Path_48" fill="#FF5252" stroke="#FFEBEB" stroke-width="5" stroke-miterlimit="10" d="M853.519,386.141l-253.78-100.714
			l-210.34,90.155l235.488,108.022L853.519,386.141z"/>
		<path id="Path_49" fill="#FF5252" stroke="#FFEBEB" stroke-width="5" stroke-miterlimit="10" d="M853.519,386.141l-253.78-100.714
			l-210.34,90.155l235.488,108.022L853.519,386.141z"/>
		<g transform="matrix(1, 0, 0, 1, -4.36, 31.34)">
			<path id="Path_50-2" fill="#FF5252" stroke="#FFEBEB" stroke-width="5" stroke-miterlimit="10" d="M849.189,150.45
				L630.848,56.233L395.359,165.068v178.688L849.189,150.45z"/>
		</g>
	</g>
	<g id="Group_91_1_" transform="translate(0 -73.6)">
		<path id="Path_48_1_" fill="#FF5252" stroke="#FFEBEB" stroke-width="5" stroke-miterlimit="10" d="M389.398,376.93
			l253.779,100.714l210.34-90.155L618.029,279.465L389.398,376.93z"/>
		<path id="Path_49_1_" fill="#FF5252" stroke="#FFEBEB" stroke-width="5" stroke-miterlimit="10" d="M389.398,376.93
			l236.891,106.714l227.229-96.155L616.622,278.465L389.398,376.93z"/>
		<g transform="matrix(1, 0, 0, 1, -4.36, 31.34)">
			<path id="Path_50-2_1_" fill="#FF5252" stroke="#FFEBEB" stroke-width="5" stroke-miterlimit="10" d="M402.446,549.941
				l218.34,94.218l235.49-108.837V356.636L402.446,549.941z"/>
		</g>
	</g>
</g>
<g>
	<path fill="#333333" stroke="#FFFDFD" stroke-width="12" stroke-miterlimit="10" d="M184.555,373.667
		c13.103,6.878,34.068,13.758,55.36,13.758c22.93,0,35.05-9.5,35.05-24.241c0-13.429-10.482-21.62-37.016-30.791
		c-36.688-13.104-60.929-33.413-60.929-65.842c0-37.671,31.775-66.17,83.531-66.17c25.223,0,43.239,4.914,56.342,11.137
		l-11.137,39.964c-8.517-4.258-24.568-10.481-45.86-10.481c-21.62,0-32.102,10.154-32.102,21.292
		c0,14.085,12.12,20.31,40.947,31.447c38.981,14.414,56.997,34.724,56.997,66.169c0,37.017-28.171,68.462-88.772,68.462
		c-25.223,0-50.118-6.878-62.566-13.757L184.555,373.667z"/>
	<path fill="#333333" stroke="#FFFDFD" stroke-width="12" stroke-miterlimit="10" d="M392.234,203.985v220.782h-49.791V203.985
		H392.234z"/>
	<path fill="#333333" stroke="#FFFDFD" stroke-width="12" stroke-miterlimit="10" d="M460.694,245.914h-59.619v-41.93h169.683v41.93
		h-60.273v178.853h-49.79V245.914z"/>
	<path fill="#333333" stroke="#FFFDFD" stroke-width="12" stroke-miterlimit="10" d="M579.599,206.932
		c15.396-2.62,37.018-4.585,67.479-4.585c30.791,0,53.067,5.896,67.807,18.017c14.087,10.811,23.258,29.153,23.258,50.773
		c0,21.947-6.878,40.292-19.981,52.411c-17.031,15.725-42.584,23.258-72.064,23.258c-6.551,0-12.447-0.327-17.033-1.311v79.271
		H579.6L579.599,206.932L579.599,206.932z M629.062,307.17c4.259,0.983,9.502,1.312,16.707,1.312
		c26.532,0,42.911-13.433,42.911-35.706c0-20.311-13.759-32.431-38.98-32.431c-10.153,0-17.034,0.655-20.638,1.639V307.17z"/>
	<path fill="#333333" stroke="#FFFDFD" stroke-width="12" stroke-miterlimit="10" d="M752.227,207.26
		c16.053-2.948,39.638-4.913,66.497-4.913c32.758,0,55.688,4.913,71.412,17.688c13.43,10.481,20.637,25.879,20.637,46.188
		c0,27.844-19.981,47.17-38.98,54.048v0.983c15.396,6.224,23.913,20.637,29.48,40.946c6.881,25.224,13.432,54.05,17.688,62.565
		H867.86c-3.275-6.224-8.847-24.239-15.068-51.428c-6.224-27.845-15.725-35.051-36.361-35.379h-14.738v86.807h-49.466V207.26
		L752.227,207.26z M801.691,301.928h19.653c24.896,0,39.635-12.446,39.635-31.773c0-19.982-13.757-30.465-36.687-30.465
		c-12.121,0-19,0.654-22.603,1.638L801.691,301.928L801.691,301.928z"/>
	<path fill="#333333" stroke="#FFFDFD" stroke-width="12" stroke-miterlimit="10" d="M1060.144,331.41h-81.237v52.41h90.735v40.946
		H929.112V203.985h135.942v40.946h-86.149v45.859h81.237L1060.144,331.41L1060.144,331.41z"/>
</g>
</svg>
