<?xml version="1.0" encoding="utf-8"?>
<!-- Generator: Adobe Illustrator 16.0.3, SVG Export Plug-In . SVG Version: 6.00 Build 0)  -->
<!DOCTYPE svg PUBLIC "-//W3C//DTD SVG 1.1//EN" "http://www.w3.org/Graphics/SVG/1.1/DTD/svg11.dtd">
<svg version="1.1" id="Layer_1" xmlns="http://www.w3.org/2000/svg" xmlns:xlink="http://www.w3.org/1999/xlink" x="0px" y="0px"
	 width="26.901px" height="39.45px" viewBox="3717.09 554.449 26.901 39.45" enable-background="new 3717.09 554.449 26.901 39.45"
	 xml:space="preserve">
<g opacity="0.8">
	<g id="Group_91" transform="translate(0 -73.6)">
		<path id="Path_48" fill="#FF5252" stroke="#FFEBEB" stroke-miterlimit="10" d="M3743.991,650.728l-14.71-5.838l-12.191,5.226
			l13.649,6.261L3743.991,650.728z"/>
		<path id="Path_49" fill="#FF5252" stroke="#FFEBEB" stroke-miterlimit="10" d="M3743.991,650.728l-14.71-5.838l-12.191,5.226
			l13.649,6.261L3743.991,650.728z"/>
		<g transform="matrix(1, 0, 0, 1, -4.36, 31.34)">
			<path id="Path_50-2" fill="#FF5252" stroke="#FFEBEB" stroke-miterlimit="10" d="M3747.847,607.543l-12.655-5.461l-13.649,6.309
				v10.356L3747.847,607.543z"/>
		</g>
	</g>
	<g id="Group_91_1_" transform="translate(0 -73.6)">
		<path id="Path_48_1_" fill="#FF5252" stroke="#FFEBEB" stroke-miterlimit="10" d="M3717.09,650.194l14.71,5.838l12.191-5.226
			l-13.649-6.261L3717.09,650.194z"/>
		<path id="Path_49_1_" fill="#FF5252" stroke="#FFEBEB" stroke-miterlimit="10" d="M3717.09,650.194l13.73,6.186l13.171-5.573
			l-13.73-6.319L3717.09,650.194z"/>
		<g transform="matrix(1, 0, 0, 1, -4.36, 31.34)">
			<path id="Path_50-2_1_" fill="#FF5252" stroke="#FFEBEB" stroke-miterlimit="10" d="M3721.954,630.698l12.655,5.461l13.649-6.309
				v-10.356L3721.954,630.698z"/>
		</g>
	</g>
</g>
</svg>
